<svg width="1728" height="663" viewBox="0 0 1728 663" fill="none" xmlns="http://www.w3.org/2000/svg">
<path d="M1713.15 189.368L1774 71.9292V659.873L994.193 631.797L1013.06 412.108L1023.44 328.708C1024.07 314.129 1027.59 282.532 1036.65 272.768C1045.71 263.004 1063.07 259.885 1070.62 259.546C1070.62 254.8 1076.09 243.476 1097.98 236.153C1119.87 228.83 1142.95 248.697 1151.76 259.546L1177.23 297.178C1182.58 289.041 1196.48 272.768 1209.31 272.768C1222.15 272.768 1233.53 280.905 1237.62 284.973C1237.93 276.497 1241.58 256.698 1253.66 245.307C1265.74 233.916 1281.96 234.458 1288.57 236.153C1287.62 224.965 1289.51 199.945 1304.61 189.368C1319.7 178.79 1337.95 193.775 1345.18 202.59C1347.07 192.758 1353.86 168.009 1365.94 147.667C1378.01 127.326 1401.16 156.143 1411.22 173.094C1417.83 164.619 1433.68 141.972 1444.25 119.189C1457.46 90.711 1513.12 119.189 1528.22 147.667C1540.3 170.45 1561.56 193.775 1570.68 202.59C1579.48 213.439 1596.15 242.663 1592.38 272.768C1588.6 302.874 1576.34 322.605 1570.68 328.708L1528.22 352.1L1570.68 428.381H1652.76L1713.15 365.322H1665.97L1713.15 272.768H1682.96L1745.23 189.368H1713.15Z" fill="#15192F"/>
<path d="M644.935 190.296L757.09 0V663L-136 631.852V451.641L-121.28 328.969C-120.581 314.461 -116.668 283.015 -106.605 273.298C-96.5426 263.58 -77.2562 260.476 -68.8708 260.139C-68.8708 255.415 -62.7914 244.146 -38.4737 236.858C-14.1561 229.57 11.4892 249.342 21.2722 260.139L49.5729 297.591C55.5125 289.493 70.9556 273.298 85.2108 273.298C99.466 273.298 112.114 281.395 116.656 285.444C117.005 277.009 121.058 257.305 134.475 245.968C147.892 234.631 165.92 235.171 173.257 236.858C172.208 225.724 174.305 200.823 191.075 190.296C207.846 179.769 228.111 194.682 236.147 203.455C238.243 193.67 245.79 169.04 259.207 148.795C272.623 128.551 298.339 157.231 309.519 174.101C316.856 165.666 334.466 143.127 346.205 120.453C360.88 92.1115 422.722 120.453 439.493 148.795C452.909 171.469 476.528 194.682 486.661 203.455C496.444 214.252 514.961 243.336 510.769 273.298C506.576 303.259 492.95 322.896 486.661 328.969L535.926 356.299L486.661 428.166H577.852L644.935 365.409H592.526L644.935 273.298H611.393L680.573 190.296H644.935Z" fill="#15192F"/>
<path d="M870.3 190.296L757.09 0V663L1676.52 630.609L1655.36 411.971L1643.72 328.969C1643.02 314.461 1639.07 283.015 1628.91 273.298C1618.76 263.58 1599.29 260.476 1590.82 260.139C1590.82 255.415 1584.69 244.146 1560.14 236.858C1535.59 229.57 1509.71 249.342 1499.83 260.139L1471.26 297.591C1465.27 289.493 1449.68 273.298 1435.29 273.298C1420.9 273.298 1408.14 281.395 1403.55 285.444C1403.2 277.009 1399.11 257.305 1385.56 245.968C1372.02 234.631 1353.82 235.171 1346.42 236.858C1347.48 225.724 1345.36 200.823 1328.43 190.296C1311.5 179.769 1291.05 194.682 1282.93 203.455C1280.82 193.67 1273.2 169.04 1259.66 148.795C1246.12 128.551 1220.16 157.231 1208.87 174.101C1201.47 165.666 1183.69 143.127 1171.84 120.453C1157.03 92.1115 1094.6 120.453 1077.68 148.795C1064.13 171.469 1040.29 194.682 1030.06 203.455C1020.19 214.252 1001.5 243.336 1005.73 273.298C1009.96 303.259 1023.72 322.896 1030.06 328.969L980.335 356.299L1030.06 428.166H938.014L870.3 365.409H923.202L870.3 273.298H904.157L834.327 190.296H870.3Z" fill="#15192F"/>
</svg>
